<svg width="6" height="6" viewBox="0 0 6 6" fill="none" xmlns="http://www.w3.org/2000/svg">
<g clip-path="url(#clip0_832_1273)">
<path fill-rule="evenodd" clip-rule="evenodd" d="M5.1679 3.12145C5.27795 3.03058 5.49117 3.10735 5.48765 3.25003C5.36223 4.51335 4.29632 5.50003 3 5.50003C1.61929 5.50003 0.5 4.38075 0.5 3.00003C0.5 1.70369 1.48667 0.637805 2.75 0.512372C2.89267 0.50885 2.96945 0.722077 2.87858 0.832135C2.6438 1.11648 2.5 1.48218 2.5 1.87503C2.5 2.7725 3.22755 3.50003 4.125 3.50003C4.51785 3.50003 4.88355 3.35623 5.1679 3.12145ZM0.875 3.00003C0.875 2.05785 1.4884 1.25859 2.33748 0.980262C2.20238 1.25019 2.125 1.55472 2.125 1.87503C2.125 2.9796 3.02042 3.87503 4.125 3.87503C4.4453 3.87503 4.74983 3.79765 5.01977 3.66255C4.74145 4.51163 3.94217 5.12503 3 5.12503C1.8264 5.12503 0.875 4.17363 0.875 3.00003Z" fill="#0080E3"/>
</g>
<defs>
<clipPath id="clip0_832_1273">
<rect width="6" height="6" fill="white"/>
</clipPath>
</defs>
</svg>
