<svg width="8" height="8" viewBox="0 0 8 8" fill="none" xmlns="http://www.w3.org/2000/svg">
<path d="M7.01738 3.86959C7.01738 3.86959 7.04113 3.83831 7.05696 3.82658C7.02927 3.84222 7.00553 3.86568 6.98576 3.88914C6.98576 3.88914 6.96597 3.90086 6.95806 3.90868C6.91455 3.93214 6.88686 3.97123 6.85521 4.01033C6.83939 4.03379 6.81564 4.06115 6.79587 4.08461C6.76818 4.11197 6.73257 4.14325 6.69697 4.17453C6.67719 4.17453 6.65743 4.17453 6.65743 4.15498V4.17453C6.49524 4.20971 6.34492 4.32309 6.18273 4.41691C6.12735 4.53029 6.0166 4.52638 5.94144 4.63193C5.96518 4.69058 5.92956 4.65539 5.8544 4.73358C5.89396 4.69058 5.83068 4.69448 5.79508 4.71012C5.79113 4.73358 5.77133 4.75704 5.75551 4.77658C5.72387 4.77658 5.58939 4.8235 5.57752 4.88605C5.51423 4.91342 5.57752 4.86259 5.57752 4.84304C5.53797 4.83523 5.55378 4.89387 5.52214 4.89387C5.52214 4.89387 5.52214 4.88996 5.52214 4.88214C5.44698 4.9486 5.3916 4.97206 5.30458 5.03461C5.33622 5.08543 5.24127 5.11671 5.21754 5.16362C5.21754 5.14016 5.15821 5.18317 5.12657 5.1949L5.11075 5.26527C5.09097 5.32782 5.03557 5.29263 4.99206 5.35518H5.01186C4.98417 5.39819 4.85363 5.46074 4.79034 5.46074C4.46993 5.82823 4.1495 5.82823 3.76184 6.13708C3.76184 6.14099 3.76184 6.1449 3.76184 6.14881C3.74997 6.14881 3.74207 6.14881 3.72625 6.12926C3.70252 6.1449 3.72229 6.15663 3.66691 6.13317C3.71042 6.15272 3.74207 6.17617 3.77372 6.19963L3.76184 6.18399C3.72228 6.18399 3.69064 6.16444 3.67087 6.14099C3.63131 6.09798 3.63131 6.07844 3.6234 6.06671C3.64318 6.05498 3.66294 6.06671 3.68272 6.08625C3.73019 6.12535 3.73019 6.11753 3.76184 6.11753L3.74603 6.07062L3.72229 6.09016C3.67878 6.04716 3.68272 6.04716 3.65899 6.0237H3.66691C3.66691 6.0237 3.63921 6.02761 3.63129 6.00807C3.63129 6.00416 3.6313 5.99243 3.63921 5.99634L3.58779 5.97679C3.6313 5.97288 3.5601 5.93769 3.58779 5.91424C3.47703 5.78914 3.39396 5.80868 3.3188 5.67185C3.32671 5.69922 3.24364 5.68358 3.21595 5.64839C3.20408 5.62494 3.20409 5.61321 3.22387 5.61321L3.16452 5.58584C3.1487 5.49202 3.0696 5.47247 3.00235 5.38646L3.01816 5.37864C2.97465 5.36691 2.93114 5.34346 2.89158 5.29654L2.92323 5.2809C2.88763 5.21053 2.83224 5.28872 2.78873 5.21444C2.76499 5.24181 2.78873 5.28872 2.76895 5.32C2.78082 5.2809 2.72148 5.21444 2.71753 5.24572C2.64632 5.19881 2.67798 5.20272 2.67798 5.1949L2.62655 5.17535C2.58699 5.13234 2.64633 5.12844 2.67798 5.12844C2.61073 5.11671 2.58699 5.05416 2.54743 5.00724L2.57513 5.01506L2.51974 4.95251C2.4604 4.93296 2.40898 4.88214 2.36942 4.8235H2.43669C2.42086 4.77267 2.40898 4.81959 2.39315 4.81568C2.32195 4.77658 2.33382 4.74531 2.32195 4.69839C2.19933 4.64757 2.20329 4.47165 2.08066 4.44819L2.09254 4.42082C1.95013 4.36218 1.89474 4.18625 1.75233 4.16671C1.70091 3.97514 1.60993 4.14716 1.5585 3.97514L1.55061 3.98687L1.4161 3.84222C1.35677 3.76794 1.20249 3.6702 1.068 3.6663C0.92955 3.65066 0.771329 3.7093 0.680348 3.79531C0.565632 3.88913 0.506291 4.04551 0.502336 4.17062C0.482557 4.31527 0.593315 4.50292 0.648695 4.54983L0.779241 4.69448C0.866266 4.78831 0.957249 4.88214 1.05219 4.96424L1.03635 4.97597C1.29347 5.2809 1.55852 5.57021 1.82355 5.85951L2.22306 6.28955L2.42085 6.50848L2.64633 6.71568C2.71357 6.75477 2.70962 6.69222 2.77291 6.71959C2.79269 6.73914 2.84016 6.78214 2.82434 6.79778C2.77291 6.77041 2.78479 6.8056 2.76106 6.79778C2.83226 6.85642 2.8995 6.95807 2.97862 6.98934L2.94696 6.91897C2.97861 6.9307 3.01026 6.96979 3.03004 6.98934C3.01026 6.99325 3.01816 7.04798 2.99443 7.03625C3.17244 7.09099 3.06168 7.15745 3.2476 7.23564C3.27925 7.21609 3.35835 7.22391 3.43747 7.22391C3.51658 7.22391 3.60758 7.22782 3.69856 7.20827L3.77765 7.22C3.67876 7.22391 3.79348 7.27473 3.63525 7.26691C3.78557 7.29428 3.84886 7.24737 3.95567 7.23173C3.93193 7.22 3.93194 7.20045 3.96754 7.1809C4.02688 7.17309 4.0427 7.20045 4.10994 7.177L4.05456 7.22391C4.10994 7.22782 4.13369 7.1809 4.16929 7.15745C4.20094 7.17309 4.28004 7.13008 4.28004 7.16527C4.32355 7.0949 4.35917 7.09881 4.4185 7.03235C4.32752 7.05189 4.41848 6.98934 4.3987 6.97761L4.32354 7.03625C4.45013 6.98152 4.28794 7.06362 4.32354 7.09881C4.2563 7.11444 4.35916 6.98934 4.26818 7.04798C4.36312 6.96197 4.39872 6.96588 4.48574 6.86033C4.42641 6.91115 4.48179 6.82514 4.43828 6.83687C4.52135 6.78214 4.46992 6.83687 4.50948 6.84469C4.55299 6.81342 4.58463 6.82514 4.60837 6.7665C4.68748 6.72741 4.61629 6.80169 4.66375 6.79387C4.65584 6.84078 4.43828 6.89942 4.51344 6.96979C4.47388 6.99716 4.45014 7.05971 4.39081 7.0949C4.45014 7.07535 4.53717 7.05971 4.58859 6.99716L4.5609 6.94634C4.60441 6.91506 4.59254 6.87597 4.62814 6.85642C4.62023 6.88379 4.6677 6.87988 4.69934 6.85251C4.68352 6.85251 4.67165 6.86424 4.66769 6.85251C4.73098 6.80169 4.71914 6.76259 4.79034 6.69613C4.71518 6.73132 4.69145 6.72741 4.61629 6.74695C4.60838 6.70395 4.65584 6.71177 4.68749 6.6844C4.68749 6.69222 4.67956 6.70004 4.69538 6.69613L4.72308 6.65313C4.81406 6.61012 4.74681 6.70786 4.82593 6.67658C4.89318 6.66877 4.87735 6.61403 4.92482 6.6023C4.92087 6.6023 4.91692 6.6023 4.91297 6.6023C4.92088 6.59839 4.92483 6.59449 4.93274 6.59058C4.96834 6.55539 5.01581 6.52021 5.0079 6.48893C5.01977 6.49675 5.03954 6.45765 5.04745 6.43811C5.05931 6.41074 5.09097 6.34037 5.15822 6.3521C5.20964 6.31691 5.25711 6.29737 5.25711 6.32082L5.34413 6.26609L5.35994 6.30518C5.42719 6.23481 5.40347 6.22309 5.43116 6.15272C5.49841 6.12926 5.57752 6.03543 5.60126 5.99634C5.60917 5.99634 5.61708 5.98461 5.62895 5.97288L5.58938 5.98461C5.64871 5.9377 5.62498 5.92988 5.66454 5.89469C5.65267 5.89469 5.65268 5.89469 5.67642 5.88296L5.66454 5.89469L5.68431 5.88687C5.68431 5.88687 5.69224 5.87905 5.70015 5.87123C5.70015 5.87514 5.69222 5.88296 5.68431 5.88687H5.70015C5.77135 5.88687 5.75156 5.81259 5.8109 5.78523C5.8109 5.78914 5.80299 5.79695 5.79508 5.80086C5.83068 5.78523 5.90584 5.79304 5.89398 5.75786C5.90189 5.75786 5.90979 5.74222 5.90979 5.72658L5.93352 5.71486C5.93352 5.71486 5.9177 5.72267 5.90979 5.72658C5.91375 5.70704 5.91772 5.68749 5.92563 5.6914L6.00079 5.63667C6.00079 5.63667 6.03242 5.6093 6.04033 5.59366H6.06407C6.0878 5.57021 6.09572 5.57802 6.09572 5.58584C6.21835 5.55066 6.21043 5.4451 6.33305 5.4021C6.33305 5.36691 6.2856 5.39037 6.27373 5.38255C6.27373 5.35518 6.31327 5.29263 6.32909 5.25745C6.39634 5.24963 6.54271 5.15971 6.56249 5.21835C6.64161 5.15189 6.51502 5.21835 6.53876 5.16753L6.55061 5.15971C6.51897 5.17926 6.48733 5.18317 6.45964 5.18317C6.43195 5.16753 6.49525 5.10107 6.51898 5.08543L6.5348 5.12844C6.58227 5.06979 6.55852 5.03852 6.55061 4.9916C6.56644 4.97597 6.58622 4.96033 6.60204 4.94469C6.61786 4.95642 6.62577 4.97597 6.64951 4.98769L6.70093 4.92514L6.72467 4.9486C6.75631 4.90951 6.74445 4.87823 6.80378 4.83914C6.78796 4.89778 6.90268 4.78831 6.87894 4.86259C6.91455 4.84304 6.87894 4.79222 6.92245 4.80786C6.9185 4.76486 6.88686 4.81959 6.86313 4.82741C6.81566 4.80395 6.9106 4.75313 6.93433 4.71012C6.95411 4.72576 6.93433 4.75313 6.98576 4.72576C6.9818 4.70621 6.99367 4.67103 7.03322 4.66321C7.00949 4.63975 7.07277 4.6163 7.0965 4.59284C7.06881 4.61239 7.01345 4.63584 7.00949 4.59675C7.02136 4.56938 7.03322 4.54593 7.08069 4.50683L7.04112 4.52638C7.0609 4.50683 7.08068 4.48728 7.0965 4.47165C7.12024 4.46383 7.15188 4.4521 7.1677 4.42473C7.15979 4.45992 7.14793 4.47555 7.14397 4.51074C7.15979 4.47555 7.18748 4.40909 7.21517 4.36218L7.29033 4.34654C7.27846 4.327 7.3378 4.29572 7.31406 4.27226C7.38131 4.22535 7.3022 4.34654 7.31406 4.36609C7.39713 4.30354 7.32595 4.27617 7.42879 4.21753V4.26444C7.45648 4.2449 7.48812 4.13543 7.49207 4.13934C7.48021 4.13934 7.48812 4.15889 7.4723 4.18625C7.4367 4.13934 7.45647 4.01033 7.38922 4.01815C7.38922 3.99078 7.38132 3.96341 7.36945 3.93996C7.36549 3.93214 7.35759 3.92432 7.35363 3.9165C7.3655 3.92432 7.38131 3.93214 7.38922 3.93996C7.37736 3.9165 7.36154 3.90868 7.34572 3.90868C7.31407 3.86177 7.27056 3.82658 7.19936 3.80313C7.12815 3.78749 7.06487 3.81095 7.00949 3.85004L7.01738 3.86959ZM3.68668 6.28173H3.71041C3.71041 6.28173 3.69855 6.28955 3.68668 6.28173ZM3.837 6.19963L3.81723 6.1879C3.81723 6.1879 3.84491 6.15272 3.86469 6.14099C3.84887 6.16053 3.84887 6.18008 3.84096 6.19572L3.837 6.19963ZM3.78161 6.19963C3.78161 6.19963 3.80536 6.21918 3.81723 6.227C3.81723 6.227 3.8093 6.2309 3.80535 6.23481L3.79745 6.227C3.79745 6.227 3.79746 6.227 3.80141 6.21918C3.80141 6.21918 3.8014 6.21918 3.79349 6.22309L3.77372 6.19963H3.78161ZM1.21832 3.9986C1.21832 3.9986 1.22228 4.00642 1.22624 4.01033C1.19064 3.97514 1.14316 3.9556 1.09173 3.94387C1.12733 3.93605 1.19458 3.95951 1.21832 3.99469V3.9986ZM5.60915 6.01979C5.53795 6.0628 5.51423 6.10189 5.45094 6.13708C5.46676 6.13708 5.47468 6.1449 5.48259 6.14881C5.45886 6.16444 5.43116 6.17617 5.40743 6.16444C5.40743 6.1058 5.5973 6.04716 5.54983 6.05107C5.60125 5.98461 5.59333 6.01979 5.60915 6.0237V6.01979ZM6.07595 5.61712H6.06407C6.07989 5.59757 6.08386 5.58193 6.07595 5.61712ZM6.95014 4.72576C6.92641 4.72576 6.93037 4.7023 6.93037 4.67103C6.95015 4.65148 6.96598 4.63584 6.98576 4.6163C6.99367 4.6163 6.99367 4.62411 7.00949 4.6163L6.9541 4.72185L6.95014 4.72576ZM7.34968 4.25272C7.2943 4.26053 7.29429 4.34263 7.24682 4.35827C7.24682 4.35827 7.24286 4.35436 7.2389 4.35045C7.28242 4.30354 7.31407 4.26444 7.34176 4.22926C7.34176 4.23708 7.34176 4.2449 7.34968 4.25272Z" fill="white"/>
<path d="M4.03875 7.24346C4.01502 7.24346 3.99919 7.24737 3.98336 7.25128C3.99128 7.25128 3.99919 7.25518 4.0071 7.25909L4.03875 7.24737V7.24346Z" fill="white"/>
<path d="M2.51186 4.90169C2.46439 4.92123 2.52373 4.90951 2.53559 4.95642L2.5791 4.96424C2.55932 4.93296 2.53164 4.91732 2.51186 4.89778V4.90169Z" fill="white"/>
<path d="M7.46835 3.90086C7.38923 3.81486 7.35759 3.84613 7.32199 3.85395C7.40506 3.88132 7.42484 3.94387 7.44857 4.04551C7.45253 4.01424 7.45649 3.97905 7.45649 3.94387L7.47231 3.97123C7.47231 3.94778 7.47231 3.92432 7.47231 3.90477L7.46835 3.90086Z" fill="white"/>
<path d="M7.18354 4.5772L7.1954 4.5342C7.1598 4.54983 7.12816 4.58111 7.13608 4.60457C7.15981 4.56156 7.15189 4.60457 7.17958 4.5772H7.18354Z" fill="white"/>
<path d="M6.85521 4.92905C6.89872 4.93687 6.90266 4.88996 6.94222 4.86259C6.91453 4.88996 6.8473 4.90169 6.85521 4.92905Z" fill="white"/>
<path d="M6.7761 5.01115C6.8117 4.9916 6.84731 4.9916 6.87895 4.96033C6.85918 4.95251 6.82754 4.94469 6.79194 4.98379L6.78402 4.9486C6.7326 4.96815 6.82753 4.96424 6.7761 5.01115Z" fill="white"/>
<path d="M6.59415 5.10107L6.61788 5.14016C6.6614 5.10889 6.60601 5.13235 6.60996 5.1128C6.62579 5.10498 6.64556 5.09325 6.64951 5.07761C6.60995 5.12453 6.62184 5.05416 6.59019 5.10107H6.59415Z" fill="white"/>
<path d="M6.49526 5.25745L6.45569 5.32H6.53084C6.58227 5.24963 6.51504 5.29654 6.49526 5.25745Z" fill="white"/>
<path d="M6.36471 5.41383C6.3924 5.35128 6.40031 5.35128 6.41218 5.29654H6.4003L6.36471 5.41383Z" fill="white"/>
<path d="M5.68038 6.02761C5.64874 6.03543 5.58938 6.12144 5.56565 6.15663C5.60125 6.11753 5.70412 6.03934 5.68038 6.02761Z" fill="white"/>
<path d="M4.18511 7.23173C4.13369 7.26691 4.08623 7.29428 4.02294 7.33337C4.05063 7.32556 4.08621 7.32556 4.07434 7.30601C4.1139 7.29819 4.18115 7.25518 4.18511 7.23173Z" fill="white"/>
<path d="M3.48097 7.30992C3.51262 7.30992 3.54427 7.32556 3.54031 7.3021C3.52845 7.29037 3.46515 7.29037 3.48097 7.30992Z" fill="white"/>
<path d="M2.69776 5.05025C2.69776 5.05025 2.67798 5.03852 2.67798 5.02679C2.65425 5.02679 2.65425 5.04243 2.65029 5.05807L2.69776 5.05025Z" fill="white"/>
<path d="M2.79665 5.17144C2.74523 5.10889 2.71359 5.12453 2.65821 5.08152C2.67008 5.1128 2.72149 5.12062 2.74127 5.1558H2.71753L2.79665 5.17535V5.17144Z" fill="white"/>
<path d="M4.02687 4.60066C4.00314 4.60066 3.98733 4.60457 3.97151 4.60848C3.97942 4.60848 3.98733 4.61239 3.99524 4.6163L4.02687 4.60457V4.60066Z" fill="white"/>
<path d="M2.51186 2.24716C2.46439 2.26671 2.52373 2.25498 2.53559 2.30189L2.5791 2.30971C2.55932 2.27844 2.53164 2.2628 2.51186 2.24325V2.24716Z" fill="white"/>
<path d="M7.48812 1.563C7.48812 1.563 7.49604 1.53564 7.5 1.53173C7.49209 1.53173 7.48812 1.54346 7.48812 1.563Z" fill="white"/>
<path d="M1.09174 1.01177C0.806928 0.976584 0.514197 1.21506 0.514197 1.51609C0.514197 1.58255 0.526078 1.66074 0.553768 1.7272C0.573547 1.78975 0.640802 1.87185 0.66058 1.8914L0.791101 2.03605C0.878127 2.12988 0.969105 2.2237 1.06009 2.3058L1.04427 2.31753C1.30139 2.62247 1.56642 2.91177 1.83146 3.19716C2.10836 3.47864 2.34175 3.77576 2.65029 4.05724C2.71754 4.09634 2.71359 4.03379 2.77688 4.06115C2.79666 4.0807 2.84413 4.1237 2.8283 4.14325C2.78083 4.11588 2.78873 4.15107 2.765 4.14325C2.83225 4.2058 2.90347 4.30745 2.98258 4.33872L2.95489 4.26835C2.98653 4.28008 3.01816 4.31918 3.03794 4.34263C3.01816 4.34263 3.02609 4.40128 3.00236 4.38955C3.18036 4.44428 3.06565 4.50683 3.25157 4.59284C3.28717 4.57329 3.36232 4.58502 3.44143 4.58502C3.5245 4.58502 3.60759 4.58893 3.70252 4.57329L3.78558 4.58502C3.67877 4.58502 3.79349 4.64366 3.63922 4.62802C3.78954 4.66321 3.8647 4.61239 3.96359 4.60066C3.93986 4.58893 3.93984 4.56938 3.97545 4.54983C4.03478 4.54202 4.05062 4.56938 4.11787 4.54593L4.06248 4.59284C4.11786 4.60066 4.14159 4.55374 4.17719 4.53029C4.20884 4.54593 4.28796 4.50292 4.28796 4.53811C4.33148 4.47165 4.36707 4.47165 4.4264 4.40909C4.33542 4.42864 4.42641 4.36609 4.40663 4.35436L4.33147 4.413C4.45805 4.35827 4.29587 4.44037 4.33147 4.47556C4.26422 4.49119 4.36707 4.36609 4.28004 4.42473C4.37894 4.33872 4.41058 4.34263 4.50156 4.24099C4.43827 4.29181 4.49761 4.2058 4.4541 4.21753C4.53717 4.1628 4.48574 4.21753 4.5253 4.22535C4.56881 4.19407 4.60045 4.2058 4.62419 4.14716C4.7033 4.10807 4.63211 4.18235 4.67957 4.17453C4.67166 4.22144 4.45014 4.27617 4.52926 4.35045C4.4897 4.37782 4.46201 4.44037 4.40267 4.47165C4.46201 4.4521 4.54903 4.43646 4.60045 4.37782L4.57276 4.327C4.62023 4.29572 4.60443 4.25662 4.64003 4.23708C4.63212 4.26444 4.67563 4.26053 4.71123 4.23317C4.6954 4.23317 4.68353 4.2449 4.67957 4.23317C4.74682 4.18235 4.731 4.14325 4.8022 4.0807C4.72704 4.11588 4.70331 4.11197 4.62815 4.13152C4.62024 4.08852 4.6677 4.09634 4.69935 4.06897C4.69935 4.07679 4.69144 4.08461 4.70727 4.0807L4.73496 4.03769C4.82594 3.99469 4.7587 4.09243 4.83781 4.06115C4.90506 4.05333 4.88924 3.9986 4.93671 3.99078C4.93275 3.99078 4.92878 3.99078 4.92483 3.99078C4.93274 3.98687 4.93669 3.98296 4.9446 3.97905C4.9802 3.94387 5.02767 3.90868 5.01976 3.87741C5.03163 3.88523 5.05538 3.84613 5.05933 3.82658C5.07515 3.79922 5.10283 3.72885 5.17008 3.74058C5.2215 3.70539 5.26897 3.68584 5.26897 3.7093L5.35995 3.65457L5.37578 3.69366C5.44303 3.6272 5.42325 3.61547 5.44698 3.54119C5.51423 3.51774 5.59335 3.42782 5.62104 3.38481C5.62895 3.38481 5.63686 3.37309 5.64873 3.36136L5.60916 3.37309C5.66849 3.32617 5.64476 3.31835 5.68432 3.28708C5.67245 3.28708 5.67246 3.28708 5.6962 3.27535L5.68432 3.28708L5.70411 3.27926C5.70411 3.27926 5.71202 3.27144 5.71993 3.26362C5.71993 3.26753 5.71203 3.27535 5.70411 3.27926H5.71993C5.79113 3.27926 5.7753 3.20498 5.83068 3.17761C5.83068 3.18152 5.82277 3.18934 5.81486 3.19325C5.85046 3.17761 5.92562 3.18543 5.91375 3.15025C5.92167 3.15025 5.92957 3.13461 5.92957 3.11897L5.9533 3.10724C5.9533 3.10724 5.93748 3.11506 5.92957 3.11897C5.93352 3.09942 5.9375 3.07988 5.94541 3.08379L6.02057 3.02905C6.02057 3.02905 6.0522 3.00169 6.06011 2.98605H6.08385C6.10758 2.96259 6.1155 2.97041 6.1155 2.97823C6.24208 2.94304 6.22625 2.83749 6.35283 2.79058C6.35283 2.75539 6.30538 2.77885 6.29351 2.77103C6.29351 2.74366 6.33305 2.68111 6.34887 2.64593C6.41612 2.63811 6.56249 2.54428 6.58227 2.60292C6.66139 2.53646 6.5348 2.60292 6.55854 2.5521L6.57042 2.54428C6.53877 2.56383 6.50711 2.56774 6.47942 2.56774C6.45173 2.5521 6.51107 2.48173 6.53876 2.47L6.55458 2.513C6.60205 2.45436 6.57437 2.41918 6.56646 2.37226C6.58228 2.35663 6.5981 2.34099 6.61392 2.32535C6.6337 2.33317 6.64162 2.35663 6.66535 2.36835L6.71282 2.3058L6.73655 2.32926C6.7682 2.28625 6.75633 2.25889 6.81567 2.21588C6.79985 2.27453 6.91061 2.16115 6.89083 2.23934C6.92643 2.21979 6.89082 2.16897 6.93434 2.18461C6.93038 2.1416 6.89873 2.19634 6.87499 2.20416C6.82752 2.1807 6.9185 2.12597 6.94223 2.08296C6.96201 2.0986 6.94223 2.12597 6.99366 2.0986C6.9897 2.07905 7.00157 2.04387 7.04112 2.03605C7.01739 2.01259 7.08069 1.98523 7.10443 1.96568C7.07674 1.98523 7.02135 2.00868 7.01739 1.9735C7.02926 1.94613 7.04114 1.92267 7.08465 1.88358L7.04508 1.90313C7.04508 1.90313 7.04509 1.89531 7.04904 1.8914C7.06091 1.87576 7.07675 1.86403 7.08861 1.84839C7.1163 1.83667 7.14793 1.82885 7.17167 1.79366C7.16376 1.82885 7.15189 1.84449 7.14793 1.87967C7.1598 1.84449 7.19145 1.77802 7.21914 1.73111L7.29825 1.71547C7.28639 1.69593 7.34968 1.66465 7.32595 1.6451C7.39715 1.6021 7.31012 1.71547 7.32595 1.73893C7.40506 1.68029 7.34178 1.65292 7.43276 1.60992C7.43276 1.60992 7.44066 1.60601 7.44461 1.6021V1.65292C7.44857 1.64901 7.4565 1.64119 7.46045 1.63337C7.46836 1.61383 7.48417 1.59037 7.49208 1.57473L7.48419 1.58646C7.48419 1.58646 7.47626 1.57473 7.47231 1.56691L7.48023 1.55128C7.46045 1.49263 7.46834 1.3949 7.41296 1.40663C7.41296 1.37926 7.40901 1.3558 7.39715 1.32844C7.39319 1.32062 7.38529 1.3128 7.38133 1.30498C7.3932 1.3128 7.40901 1.32062 7.41692 1.32844C7.40901 1.30498 7.39319 1.29716 7.37341 1.29716C7.34572 1.25416 7.30618 1.21506 7.25871 1.19942L7.22309 1.1877C7.15585 1.17206 7.09257 1.19551 7.03719 1.22679C7.04906 1.21115 7.06091 1.19942 7.07674 1.1877C7.04905 1.20333 7.02135 1.22288 7.00158 1.24634C7.00158 1.24634 6.98179 1.25807 6.97388 1.26588C6.93828 1.28543 6.9027 1.32062 6.8671 1.36753C6.85127 1.39099 6.82753 1.41835 6.80775 1.44181C6.78006 1.46918 6.74446 1.50045 6.70886 1.53173C6.68908 1.53173 6.66931 1.53173 6.66535 1.51218V1.53173C6.50317 1.56691 6.35284 1.68029 6.19066 1.77802C6.13528 1.8914 6.02453 1.88749 5.94937 1.99304C5.9731 2.05169 5.93749 2.0165 5.86629 2.09469C5.90585 2.05169 5.84254 2.0556 5.80694 2.07123C5.80299 2.09469 5.78717 2.11815 5.7674 2.1377C5.73575 2.1377 5.60125 2.18461 5.58938 2.24716C5.52609 2.27453 5.58938 2.2237 5.58938 2.20416C5.54983 2.19634 5.56564 2.25498 5.534 2.25498C5.534 2.25498 5.534 2.25107 5.534 2.24325C5.45884 2.30971 5.40346 2.33317 5.31644 2.39181C5.34808 2.44263 5.25316 2.47391 5.22942 2.52082C5.22942 2.49737 5.17007 2.54037 5.13843 2.5521L5.12261 2.62247C5.10283 2.68502 5.04746 2.64984 5.00395 2.71239H5.02372C4.99603 2.75539 4.86549 2.81794 4.8022 2.81794C4.48179 3.18543 4.16138 3.18543 3.77372 3.49428C3.77372 3.5021 3.77372 3.5021 3.77372 3.50601C3.76581 3.50601 3.75394 3.5021 3.74207 3.48646C3.71834 3.5021 3.7302 3.50992 3.69065 3.49428L3.67877 3.48255C3.67877 3.48255 3.67879 3.48255 3.67483 3.48255L3.69065 3.49428C3.72625 3.50992 3.75789 3.52946 3.78558 3.55292L3.77372 3.53728C3.73417 3.53728 3.70646 3.51774 3.68669 3.49428L3.67483 3.48255C3.65505 3.45518 3.64317 3.42391 3.63526 3.41609C3.65899 3.40436 3.68273 3.42782 3.70646 3.44346L3.7223 3.45518C3.7223 3.45518 3.75395 3.47082 3.77372 3.46691L3.76185 3.42L3.73811 3.43955C3.69064 3.39263 3.69857 3.39654 3.67483 3.36918H3.68273C3.68273 3.36918 3.65505 3.37309 3.64714 3.35354C3.64714 3.34963 3.64712 3.3379 3.65503 3.34181L3.60363 3.32226C3.64714 3.31835 3.57594 3.28317 3.60363 3.25971C3.49287 3.13461 3.40978 3.15416 3.33462 3.01732C3.34253 3.04469 3.25948 3.02905 3.23179 2.99387C3.21993 2.97041 3.21991 2.95868 3.23969 2.95868L3.18037 2.93132C3.16454 2.83749 3.08542 2.81794 3.01817 2.72802L3.03401 2.72021C2.9905 2.70848 2.94698 2.68502 2.90742 2.63811L2.93905 2.62247C2.90345 2.5521 2.84808 2.63029 2.80457 2.55601C2.78084 2.58337 2.80457 2.6342 2.7848 2.66156C2.79666 2.62247 2.73733 2.5521 2.73337 2.58728C2.66217 2.54037 2.6938 2.54428 2.6938 2.53255L2.64237 2.513C2.60282 2.47 2.66215 2.46609 2.68984 2.46609C2.62259 2.45436 2.59887 2.39181 2.55932 2.3449L2.58701 2.35272L2.53558 2.29016C2.47625 2.27062 2.42482 2.21979 2.38527 2.16115H2.45251C2.43668 2.11033 2.42482 2.15333 2.409 2.15333C2.3378 2.11424 2.34967 2.08296 2.34176 2.03605C2.21913 1.98523 2.22307 1.8093 2.10044 1.78584L2.11232 1.75848C1.96991 1.69984 1.91454 1.52391 1.77213 1.50045C1.72071 1.30889 1.62971 1.48091 1.57828 1.30889L1.57039 1.32062L1.43588 1.17597C1.43588 1.17597 1.4161 1.15251 1.3805 1.12123C1.35281 1.09778 1.32513 1.07823 1.29348 1.06259C1.23415 1.02741 1.16294 1.00786 1.09174 1.00004V1.01177ZM3.68273 3.64675H3.69065C3.69065 3.64675 3.68668 3.64675 3.68273 3.64675ZM5.60522 3.38872C5.53402 3.43173 5.51027 3.47082 5.44302 3.5021C5.45885 3.5021 5.46676 3.50992 5.47468 3.51383C5.45094 3.52946 5.42325 3.54119 5.39952 3.52946C5.39952 3.47082 5.58939 3.41609 5.54192 3.41609C5.59334 3.34963 5.58544 3.38481 5.60126 3.38872H5.60522ZM6.07199 2.98605H6.06011C6.07594 2.9665 6.0799 2.95086 6.07199 2.98605ZM6.99366 1.97741L6.93829 2.08296C6.91456 2.08296 6.91456 2.0556 6.91456 2.02823C6.93039 2.01259 6.94621 1.99304 6.96599 1.97741C6.9739 1.97741 6.97388 1.98523 6.99366 1.97741ZM7.34176 1.61774C7.28243 1.61774 7.2864 1.70374 7.23497 1.71938C7.22706 1.71547 7.23497 1.71156 7.23101 1.70374C7.26662 1.66856 7.3022 1.62946 7.3378 1.59428C7.3378 1.6021 7.33781 1.60992 7.34176 1.61774ZM3.83701 3.54901L3.81723 3.53728C3.81723 3.53728 3.84096 3.5021 3.86074 3.49428C3.84492 3.51383 3.84492 3.53337 3.83701 3.54901ZM3.78162 3.54901C3.78162 3.54901 3.80536 3.56856 3.81723 3.57638C3.81723 3.57638 3.80931 3.58029 3.80535 3.5842L3.79746 3.57638C3.79746 3.57638 3.79746 3.57638 3.80142 3.57247C3.80142 3.57247 3.80141 3.57247 3.79746 3.57638L3.77766 3.55292L3.78162 3.54901ZM1.4715 1.60601C1.4715 1.60601 1.47149 1.60601 1.46754 1.59819C1.46754 1.59819 1.4715 1.6021 1.4715 1.60601ZM1.22624 1.34016C1.22624 1.34016 1.23018 1.34798 1.23414 1.35189C1.23414 1.35189 1.2302 1.34798 1.22624 1.34407C1.19064 1.30889 1.14713 1.29325 1.10362 1.28543C1.13922 1.28152 1.20251 1.30498 1.22624 1.34016Z" fill="white"/>
<path d="M7.47231 1.26588C7.39715 1.18379 7.36551 1.20724 7.32991 1.21506C7.41298 1.24634 7.4288 1.30498 7.45253 1.40663C7.45649 1.37535 7.46045 1.34016 7.46045 1.30498L7.47231 1.33235C7.47231 1.30889 7.47231 1.28543 7.47231 1.26588Z" fill="white"/>
<path d="M7.17167 1.93049L7.18355 1.88749C7.14795 1.90313 7.1163 1.93831 7.12816 1.95786C7.1519 1.91486 7.14398 1.95786 7.17167 1.93049Z" fill="white"/>
<path d="M6.85125 2.29016C6.89476 2.29798 6.89873 2.24716 6.93829 2.21979C6.9106 2.24716 6.84334 2.25889 6.85125 2.29016Z" fill="white"/>
<path d="M6.77214 2.37226C6.80774 2.35272 6.84335 2.35272 6.875 2.31753C6.85522 2.30971 6.82358 2.30189 6.78798 2.3449L6.78006 2.30971C6.72864 2.32926 6.82357 2.32535 6.77214 2.37226Z" fill="white"/>
<path d="M6.59019 2.46609L6.61392 2.50128C6.65744 2.46609 6.60205 2.49346 6.606 2.47391C6.62183 2.46609 6.6416 2.45436 6.64555 2.43872C6.60599 2.48564 6.61788 2.41527 6.59019 2.46609Z" fill="white"/>
<path d="M6.4913 2.62247L6.45173 2.68502H6.52689C6.57435 2.61465 6.51108 2.66156 6.4913 2.62247Z" fill="white"/>
<path d="M6.36471 2.77885C6.3924 2.7163 6.39635 2.7163 6.40822 2.66156H6.39636L6.36471 2.77885Z" fill="white"/>
<path d="M5.67642 3.39263C5.64478 3.40045 5.58542 3.48646 5.55773 3.52165C5.59333 3.48255 5.6962 3.40827 5.67642 3.39263Z" fill="white"/>
<path d="M4.06248 4.66321C4.10204 4.65539 4.17323 4.6163 4.17323 4.58893C4.12576 4.62021 4.09017 4.63975 4.0071 4.69058C4.03479 4.68276 4.07039 4.68276 4.05852 4.66321H4.06248Z" fill="white"/>
<path d="M3.46913 4.65539C3.50077 4.65539 3.53241 4.67103 3.53241 4.65148C3.52054 4.63975 3.45726 4.63975 3.46913 4.65539Z" fill="white"/>
<path d="M2.69776 2.39572C2.69776 2.39572 2.67798 2.38399 2.67798 2.37226C2.65425 2.37226 2.65425 2.3879 2.65029 2.40354L2.6938 2.39572H2.69776Z" fill="white"/>
<path d="M2.79665 2.51691C2.74523 2.45436 2.71359 2.47 2.65821 2.427C2.67008 2.45827 2.72149 2.46609 2.74127 2.50128H2.71753L2.79665 2.52082V2.51691Z" fill="white"/>
</svg>
