<svg width="30" height="27" viewBox="0 0 30 27" fill="none" xmlns="http://www.w3.org/2000/svg">
<path d="M0.994587 5.01201C1.16819 4.35674 1.25365 3.5371 1.69894 3.00312C2.59909 1.92368 4.31258 1.42794 5.62601 1.14505C7.06398 0.835337 8.97631 0.69043 10.2451 1.60697C11.055 2.19206 11.5794 3.32092 11.5312 4.31274C11.5023 4.90751 11.3111 5.0883 10.7159 4.93909C10.4102 4.86247 9.92339 4.82602 9.89802 4.42308C9.80837 2.99932 12.6328 2.69062 13.5429 2.685C16.2723 2.66812 19.0545 4.10611 20.4604 6.49112C20.9489 7.3198 21.4306 8.43126 20.2967 8.91055C20.0272 9.02449 19.7827 9.0755 19.5038 8.97987C19.2922 8.90736 18.9979 8.55613 19.062 8.31426C19.1696 7.90831 20.0848 8.11651 20.3348 8.14658C21.6585 8.30579 22.7912 8.65114 23.8246 9.53401C25.2703 10.7692 26.3097 12.6716 26.9281 14.4465C27.6183 16.4276 27.9264 18.6966 27.9236 20.7889C27.9218 22.1792 27.8504 23.5626 27.9631 24.9518C27.974 25.0865 28.0891 26.0493 28.1313 25.9117C28.5049 24.6928 28.6772 23.4098 28.9806 22.1743C29.0667 21.8238 29.0824 21.7899 28.9844 22.1597C28.8523 22.6587 28.7201 23.1577 28.5879 23.6567C28.3918 24.3966 27.8347 26.6241 27.9997 25.8765C28.0634 25.5884 27.7887 25.2253 27.6749 24.9763C27.4979 24.5891 27.2442 24.1554 26.9981 23.8099C26.7312 23.4353 26.5543 23.0238 26.3251 22.6289" stroke="#E9E9E9" stroke-linecap="round"/>
</svg>
