<svg width="4" height="4" viewBox="0 0 4 4" fill="none" xmlns="http://www.w3.org/2000/svg">
<path d="M1.3379 3.22079C1.3379 3.23734 1.31935 3.25057 1.29597 3.25057C1.26935 3.25305 1.25081 3.23982 1.25081 3.22079C1.25081 3.20425 1.26935 3.19102 1.29274 3.19102C1.31694 3.18854 1.3379 3.20177 1.3379 3.22079ZM1.0871 3.18357C1.08145 3.20012 1.09758 3.21914 1.12177 3.2241C1.14274 3.23237 1.16694 3.2241 1.17177 3.20756C1.17661 3.19102 1.16129 3.17199 1.1371 3.16455C1.11613 3.15876 1.09274 3.16703 1.0871 3.18357ZM1.44355 3.16951C1.42016 3.1753 1.40403 3.19102 1.40645 3.21004C1.40887 3.22658 1.42984 3.23734 1.45403 3.23155C1.47742 3.22576 1.49355 3.21004 1.49113 3.1935C1.48871 3.17778 1.46694 3.16703 1.44355 3.16951ZM1.97419 0C0.855645 0 0 0.870954 0 2.01817C0 2.93544 0.562903 3.72037 1.36694 3.99663C1.47016 4.01565 1.50645 3.95031 1.50645 3.89655C1.50645 3.84527 1.50403 3.56239 1.50403 3.3887C1.50403 3.3887 0.939516 3.51277 0.820968 3.14222C0.820968 3.14222 0.729032 2.90153 0.596774 2.83949C0.596774 2.83949 0.412097 2.70964 0.609677 2.71212C0.609677 2.71212 0.810484 2.72866 0.920968 2.92551C1.09758 3.24478 1.39355 3.15297 1.50887 3.09838C1.52742 2.96604 1.57984 2.87423 1.6379 2.81964C1.1871 2.76836 0.732258 2.70136 0.732258 1.90568C0.732258 1.67822 0.793548 1.56408 0.922581 1.41851C0.901613 1.36474 0.833064 1.14308 0.943548 0.856893C1.1121 0.803131 1.5 1.08021 1.5 1.08021C1.66129 1.0339 1.83468 1.00991 2.00645 1.00991C2.17823 1.00991 2.35161 1.0339 2.5129 1.08021C2.5129 1.08021 2.90081 0.802304 3.06935 0.856893C3.17984 1.1439 3.11129 1.36474 3.09032 1.41851C3.21935 1.56491 3.29839 1.67905 3.29839 1.90568C3.29839 2.70385 2.82339 2.76753 2.37258 2.81964C2.44677 2.88498 2.50968 3.00905 2.50968 3.20342C2.50968 3.48216 2.50726 3.82707 2.50726 3.89489C2.50726 3.94866 2.54435 4.014 2.64677 3.99498C3.45323 3.72037 4 2.93544 4 2.01817C4 0.870954 3.09274 0 1.97419 0ZM0.783871 2.85273C0.773387 2.861 0.775806 2.88002 0.789516 2.89574C0.802419 2.90897 0.820968 2.91476 0.831452 2.90401C0.841935 2.89574 0.839516 2.87671 0.825806 2.861C0.812903 2.84776 0.794355 2.84197 0.783871 2.85273ZM0.696774 2.78573C0.691129 2.79648 0.699193 2.80972 0.715323 2.81799C0.728226 2.82626 0.744355 2.82378 0.75 2.8122C0.755645 2.80145 0.747581 2.78821 0.731452 2.77994C0.715323 2.77498 0.702419 2.77746 0.696774 2.78573ZM0.958064 3.08018C0.945161 3.09094 0.95 3.11575 0.968548 3.13147C0.987097 3.15049 1.01048 3.15297 1.02097 3.13974C1.03145 3.12898 1.02661 3.10417 1.01048 3.08846C0.992742 3.06943 0.968548 3.06695 0.958064 3.08018ZM0.866129 2.9586C0.853226 2.96687 0.853226 2.98837 0.866129 3.0074C0.879032 3.02642 0.900806 3.03469 0.91129 3.02642C0.924194 3.01567 0.924194 2.99416 0.91129 2.97514C0.9 2.95612 0.879032 2.94785 0.866129 2.9586Z" fill="white"/>
</svg>
