<svg width="4" height="4" viewBox="0 0 4 4" fill="none" xmlns="http://www.w3.org/2000/svg">
<path d="M2.00045 0.974451C1.43291 0.974451 0.975125 1.43233 0.975125 2C0.975125 2.56767 1.43291 3.02555 2.00045 3.02555C2.56799 3.02555 3.02577 2.56767 3.02577 2C3.02577 1.43233 2.56799 0.974451 2.00045 0.974451ZM2.00045 2.66674C1.63369 2.66674 1.33385 2.36773 1.33385 2C1.33385 1.63227 1.63279 1.33326 2.00045 1.33326C2.3681 1.33326 2.66704 1.63227 2.66704 2C2.66704 2.36773 2.36721 2.66674 2.00045 2.66674ZM3.30686 0.9325C3.30686 1.06549 3.19978 1.17171 3.06771 1.17171C2.93475 1.17171 2.82856 1.0646 2.82856 0.9325C2.82856 0.800402 2.93564 0.693295 3.06771 0.693295C3.19978 0.693295 3.30686 0.800402 3.30686 0.9325ZM3.98595 1.17528C3.97078 0.854848 3.8976 0.571014 3.66291 0.337164C3.42911 0.103314 3.14534 0.0301238 2.82499 0.0140578C2.49481 -0.00468593 1.50519 -0.00468593 1.17501 0.0140578C0.855549 0.0292313 0.571779 0.102421 0.337089 0.336271C0.102398 0.570122 0.0301171 0.853955 0.0140547 1.17438C-0.00468489 1.50463 -0.00468489 2.49448 0.0140547 2.82472C0.0292248 3.14515 0.102398 3.42899 0.337089 3.66284C0.571779 3.89669 0.854657 3.96988 1.17501 3.98594C1.50519 4.00469 2.49481 4.00469 2.82499 3.98594C3.14534 3.97077 3.42911 3.89758 3.66291 3.66284C3.89671 3.42899 3.96988 3.14515 3.98595 2.82472C4.00469 2.49448 4.00469 1.50552 3.98595 1.17528ZM3.5594 3.17907C3.48979 3.35401 3.35505 3.48879 3.17925 3.5593C2.91601 3.66373 2.29136 3.63963 2.00045 3.63963C1.70954 3.63963 1.08399 3.66284 0.82164 3.5593C0.646737 3.48968 0.511991 3.3549 0.441495 3.17907C0.337089 2.91576 0.361182 2.29097 0.361182 2C0.361182 1.70903 0.337981 1.08334 0.441495 0.82093C0.511099 0.645989 0.645845 0.511213 0.82164 0.440701C1.08489 0.336271 1.70954 0.36037 2.00045 0.36037C2.29136 0.36037 2.9169 0.337164 3.17925 0.440701C3.35416 0.51032 3.4889 0.645096 3.5594 0.82093C3.6638 1.08424 3.63971 1.70903 3.63971 2C3.63971 2.29097 3.6638 2.91666 3.5594 3.17907Z" fill="white"/>
</svg>
