<svg width="4" height="4" viewBox="0 0 4 4" fill="none" xmlns="http://www.w3.org/2000/svg">
<path d="M0.895536 4H0.0660714V1.32946H0.895536V4ZM0.480357 0.965179C0.215179 0.965179 0 0.745536 0 0.480357C0 0.352959 0.0506089 0.230778 0.140693 0.140693C0.230778 0.0506089 0.352959 0 0.480357 0C0.607756 0 0.729936 0.0506089 0.820021 0.140693C0.910105 0.230778 0.960714 0.352959 0.960714 0.480357C0.960714 0.745536 0.745536 0.965179 0.480357 0.965179ZM3.99911 4H3.17143V2.7C3.17143 2.39018 3.16518 1.99286 2.74018 1.99286C2.30893 1.99286 2.24286 2.32946 2.24286 2.67768V4H1.41429V1.32946H2.20982V1.69375H2.22143C2.33214 1.48393 2.60268 1.2625 3.00625 1.2625C3.84554 1.2625 4 1.81518 4 2.53304V4H3.99911Z" fill="white"/>
</svg>
