<svg width="4" height="4" viewBox="0 0 4 4" fill="none" xmlns="http://www.w3.org/2000/svg">
<path d="M1.12813 0C0.505 0 0 0.894882 0 2C0 3.10512 0.505 4 1.12813 4C1.75125 4 2.25625 3.10512 2.25625 2C2.25625 0.894882 1.75125 0 1.12813 0ZM2.93 0.116676C2.61875 0.116676 2.36625 0.959824 2.36625 2C2.36625 3.04018 2.61875 3.88332 2.93062 3.88332C3.2425 3.88332 3.495 3.04018 3.495 2H3.49375C3.49375 0.959824 3.24125 0.116676 2.93 0.116676ZM3.80187 0.312603C3.6925 0.312603 3.60375 1.06769 3.60375 2C3.60375 2.93231 3.6925 3.6874 3.80187 3.6874C3.91125 3.6874 4 2.93121 4 2C4 1.06879 3.91125 0.312603 3.80187 0.312603Z" fill="white"/>
</svg>
