<svg width="6" height="6" viewBox="0 0 6 6" fill="none" xmlns="http://www.w3.org/2000/svg">
<g clip-path="url(#clip0_785_1593)">
<path fill-rule="evenodd" clip-rule="evenodd" d="M5.1679 3.12142C5.27795 3.03055 5.49117 3.10732 5.48765 3.25C5.36223 4.51332 4.29632 5.5 3 5.5C1.61929 5.5 0.5 4.38072 0.5 3C0.5 1.70366 1.48667 0.637774 2.75 0.512342C2.89267 0.508819 2.96945 0.722047 2.87858 0.832104C2.6438 1.11645 2.5 1.48215 2.5 1.875C2.5 2.77247 3.22755 3.5 4.125 3.5C4.51785 3.5 4.88355 3.3562 5.1679 3.12142ZM0.875 3C0.875 2.05782 1.4884 1.25856 2.33748 0.980232C2.20238 1.25016 2.125 1.55469 2.125 1.875C2.125 2.97957 3.02042 3.875 4.125 3.875C4.4453 3.875 4.74983 3.79762 5.01977 3.66252C4.74145 4.5116 3.94217 5.125 3 5.125C1.8264 5.125 0.875 4.1736 0.875 3Z" fill="#F2F2F2"/>
</g>
<defs>
<clipPath id="clip0_785_1593">
<rect width="6" height="6" fill="white"/>
</clipPath>
</defs>
</svg>
