<svg width="6" height="6" viewBox="0 0 6 6" fill="none" xmlns="http://www.w3.org/2000/svg">
<g clip-path="url(#clip0_832_1118)">
<mask id="mask0_832_1118" style="mask-type:luminance" maskUnits="userSpaceOnUse" x="0" y="0" width="6" height="6">
<path d="M6 0H0V6H6V0Z" fill="white"/>
</mask>
<g mask="url(#mask0_832_1118)">
<path d="M3 1C2.89645 1 2.8125 0.916053 2.8125 0.8125V0.1875C2.8125 0.0839465 2.89645 0 3 0C3.10355 0 3.1875 0.0839465 3.1875 0.1875V0.8125C3.1875 0.916053 3.10355 1 3 1Z" fill="#DB511F"/>
<path d="M4.4142 1.58582C4.341 1.51259 4.341 1.39387 4.4142 1.32065L4.85615 0.878708C4.92937 0.805486 5.0481 0.805486 5.12132 0.878708C5.19455 0.951931 5.19455 1.07065 5.12132 1.14387L4.67937 1.58582C4.60615 1.65904 4.48742 1.65904 4.4142 1.58582Z" fill="#DB511F"/>
<path d="M5.1875 2.8125C5.08395 2.8125 5 2.89645 5 3C5 3.10355 5.08395 3.1875 5.1875 3.1875H5.8125C5.91605 3.1875 6 3.10355 6 3C6 2.89645 5.91605 2.8125 5.8125 2.8125H5.1875Z" fill="#DB511F"/>
<path d="M4.41423 4.41423C4.48743 4.34101 4.60616 4.34101 4.67938 4.41423L5.12133 4.85616C5.19456 4.92938 5.19456 5.04811 5.12133 5.12133C5.04811 5.19456 4.92938 5.19456 4.85616 5.12133L4.41423 4.67938C4.34101 4.60616 4.34101 4.48746 4.41423 4.41423Z" fill="#DB511F"/>
<path d="M3 6C2.89645 6 2.8125 5.91605 2.8125 5.8125V5.1875C2.8125 5.08395 2.89645 5 3 5C3.10355 5 3.1875 5.08395 3.1875 5.1875V5.8125C3.1875 5.91605 3.10355 6 3 6Z" fill="#DB511F"/>
<path fill-rule="evenodd" clip-rule="evenodd" d="M3 4.5C3.82842 4.5 4.5 3.82842 4.5 3C4.5 2.17157 3.82842 1.5 3 1.5C2.17157 1.5 1.5 2.17157 1.5 3C1.5 3.82842 2.17157 4.5 3 4.5ZM3 4.125C3.62133 4.125 4.125 3.62133 4.125 3C4.125 2.37868 3.62133 1.875 3 1.875C2.37868 1.875 1.875 2.37868 1.875 3C1.875 3.62133 2.37868 4.125 3 4.125Z" fill="#DB511F"/>
<path d="M0.878678 0.878708C0.951903 0.805486 1.07062 0.805486 1.14384 0.878708L1.58579 1.32065C1.65901 1.39387 1.65901 1.51259 1.58579 1.58582C1.51256 1.65904 1.39384 1.65904 1.32062 1.58582L0.878678 1.14387C0.805455 1.07065 0.805455 0.951931 0.878678 0.878708Z" fill="#DB511F"/>
<path d="M0.878678 5.12133C0.805455 5.04811 0.805455 4.92938 0.878678 4.85616L1.32062 4.41423C1.39384 4.34101 1.51256 4.34101 1.58579 4.41423C1.65901 4.48743 1.65901 4.60616 1.58579 4.67938L1.14384 5.12133C1.07062 5.19456 0.9519 5.19456 0.878678 5.12133Z" fill="#DB511F"/>
<path d="M0 3C0 2.89645 0.0839465 2.8125 0.1875 2.8125H0.8125C0.916053 2.8125 1 2.89645 1 3C1 3.10355 0.916053 3.1875 0.8125 3.1875H0.1875C0.0839467 3.1875 0 3.10355 0 3Z" fill="#DB511F"/>
</g>
</g>
<defs>
<clipPath id="clip0_832_1118">
<rect width="6" height="6" fill="white"/>
</clipPath>
</defs>
</svg>
