<svg width="6" height="6" viewBox="0 0 6 6" fill="none" xmlns="http://www.w3.org/2000/svg">
<g clip-path="url(#clip0_807_13050)">
<mask id="mask0_807_13050" style="mask-type:luminance" maskUnits="userSpaceOnUse" x="0" y="0" width="6" height="6">
<path d="M6 0H0V6H6V0Z" fill="white"/>
</mask>
<g mask="url(#mask0_807_13050)">
<path d="M3 1C2.89645 1 2.8125 0.916053 2.8125 0.8125V0.1875C2.8125 0.0839465 2.89645 0 3 0C3.10355 0 3.1875 0.0839465 3.1875 0.1875V0.8125C3.1875 0.916053 3.10355 1 3 1Z" fill="#F2F2F2"/>
<path d="M4.41421 1.58582C4.34101 1.51259 4.34101 1.39387 4.41421 1.32065L4.85616 0.878708C4.92939 0.805486 5.04811 0.805486 5.12134 0.878708C5.19456 0.951931 5.19456 1.07065 5.12134 1.14387L4.67939 1.58582C4.60616 1.65904 4.48744 1.65904 4.41421 1.58582Z" fill="#F2F2F2"/>
<path d="M5.1875 2.8125C5.08395 2.8125 5 2.89645 5 3C5 3.10355 5.08395 3.1875 5.1875 3.1875H5.8125C5.91605 3.1875 6 3.10355 6 3C6 2.89645 5.91605 2.8125 5.8125 2.8125H5.1875Z" fill="#F2F2F2"/>
<path d="M4.41423 4.41423C4.48743 4.34101 4.60616 4.34101 4.67938 4.41423L5.12133 4.85616C5.19456 4.92938 5.19456 5.04811 5.12133 5.12133C5.04811 5.19456 4.92938 5.19456 4.85616 5.12133L4.41423 4.67938C4.34101 4.60616 4.34101 4.48746 4.41423 4.41423Z" fill="#F2F2F2"/>
<path d="M3 6C2.89645 6 2.8125 5.91605 2.8125 5.8125V5.1875C2.8125 5.08395 2.89645 5 3 5C3.10355 5 3.1875 5.08395 3.1875 5.1875V5.8125C3.1875 5.91605 3.10355 6 3 6Z" fill="#F2F2F2"/>
<path fill-rule="evenodd" clip-rule="evenodd" d="M3 4.5C3.82842 4.5 4.5 3.82842 4.5 3C4.5 2.17157 3.82842 1.5 3 1.5C2.17157 1.5 1.5 2.17157 1.5 3C1.5 3.82842 2.17157 4.5 3 4.5ZM3 4.125C3.62133 4.125 4.125 3.62133 4.125 3C4.125 2.37868 3.62133 1.875 3 1.875C2.37868 1.875 1.875 2.37868 1.875 3C1.875 3.62133 2.37868 4.125 3 4.125Z" fill="#F2F2F2"/>
<path d="M0.878647 0.878708C0.951872 0.805486 1.07059 0.805486 1.14381 0.878708L1.58575 1.32065C1.65898 1.39387 1.65898 1.51259 1.58575 1.58582C1.51253 1.65904 1.39381 1.65904 1.32059 1.58582L0.878647 1.14387C0.805425 1.07065 0.805425 0.951931 0.878647 0.878708Z" fill="#F2F2F2"/>
<path d="M0.878708 5.12133C0.805486 5.04811 0.805486 4.92938 0.878708 4.85616L1.32065 4.41423C1.39387 4.34101 1.51259 4.34101 1.58582 4.41423C1.65904 4.48743 1.65904 4.60616 1.58582 4.67938L1.14387 5.12133C1.07065 5.19456 0.951931 5.19456 0.878708 5.12133Z" fill="#F2F2F2"/>
<path d="M0 3C0 2.89645 0.0839465 2.8125 0.1875 2.8125H0.8125C0.916053 2.8125 1 2.89645 1 3C1 3.10355 0.916053 3.1875 0.8125 3.1875H0.1875C0.0839467 3.1875 0 3.10355 0 3Z" fill="#F2F2F2"/>
</g>
</g>
<defs>
<clipPath id="clip0_807_13050">
<rect width="6" height="6" fill="white"/>
</clipPath>
</defs>
</svg>
