<svg width="72" height="31" viewBox="0 0 72 31" fill="none" xmlns="http://www.w3.org/2000/svg">
<path d="M3.01034 1.6779C2.29033 2.82983 1.20981 4.07783 1.03812 5.46155C0.691037 8.25879 2.30766 11.4478 3.68868 13.7592C5.20067 16.2898 7.6014 19.2895 10.6734 19.8924C12.6345 20.2772 14.9998 19.4989 16.3828 18.0697C17.2121 17.2126 17.2149 16.6848 16.1839 16.0174C15.6544 15.6746 14.9361 15.0115 14.3129 15.5263C12.1107 17.3453 15.5182 21.9054 16.7533 23.2463C20.4571 27.2673 26.3584 29.3728 31.7628 28.165C33.6406 27.7454 35.9222 26.9284 35.0733 24.6109C34.8715 24.0599 34.6121 23.632 34.0913 23.3544C33.6965 23.1439 32.7813 23.1939 32.5156 23.6191C32.0695 24.3327 33.6239 25.3882 34.0094 25.7132C36.0502 27.434 38.102 28.6201 40.8033 28.9243C44.5826 29.35 48.7815 28.2664 52.2188 26.7408C56.0555 25.0379 59.7908 22.3809 62.8433 19.5107C64.8717 17.6035 66.7949 15.6037 68.978 13.8659C69.1897 13.6973 70.7533 12.547 70.61 12.7972C69.3399 15.0143 67.7012 17.0242 66.3109 19.161C65.9164 19.7673 65.8885 19.8368 66.2949 19.1867C66.8431 18.3095 67.3914 17.4324 67.9397 16.5552C68.7528 15.2544 71.2454 11.387 70.3789 12.6528C70.0449 13.1407 69.1393 13.2358 68.6202 13.4101C67.8128 13.6813 66.8327 13.9038 65.9918 14.0166C65.0799 14.1388 64.2371 14.4434 63.3473 14.6487" stroke="#E9E9E9" stroke-width="2" stroke-linecap="round"/>
</svg>
